<mxfile host="Electron" modified="2023-11-21T00:49:11.565Z" agent="Mozilla/5.0 (Windows NT 10.0; Win64; x64) AppleWebKit/537.36 (KHTML, like Gecko) draw.io/22.1.2 Chrome/114.0.5735.289 Electron/25.9.4 Safari/537.36" etag="X0hiRm-tZRGjDClj8U-r" version="22.1.2" type="device">
  <diagram name="PÃ¡gina-1" id="2DYg6v6LhDaMeHLlMb_d">
    <mxGraphModel dx="743" dy="516" grid="1" gridSize="10" guides="1" tooltips="1" connect="1" arrows="1" fold="1" page="1" pageScale="1" pageWidth="827" pageHeight="1169" math="0" shadow="0">
      <root>
        <mxCell id="0" />
        <mxCell id="1" parent="0" />
        <mxCell id="Q3Zva_nWRlIngEb7c7mF-24" value="Place" style="shape=ext;margin=3;double=1;whiteSpace=wrap;html=1;align=center;" vertex="1" parent="1">
          <mxGeometry x="160" y="160" width="100" height="40" as="geometry" />
        </mxCell>
        <mxCell id="Q3Zva_nWRlIngEb7c7mF-25" value="Agenda" style="shape=ext;margin=3;double=1;whiteSpace=wrap;html=1;align=center;" vertex="1" parent="1">
          <mxGeometry x="160" y="260" width="100" height="40" as="geometry" />
        </mxCell>
        <mxCell id="Q3Zva_nWRlIngEb7c7mF-26" value="Sitter" style="shape=ext;margin=3;double=1;whiteSpace=wrap;html=1;align=center;" vertex="1" parent="1">
          <mxGeometry x="160" y="360" width="100" height="40" as="geometry" />
        </mxCell>
        <mxCell id="Q3Zva_nWRlIngEb7c7mF-27" value="Booking" style="shape=ext;margin=3;double=1;whiteSpace=wrap;html=1;align=center;" vertex="1" parent="1">
          <mxGeometry x="320" y="200" width="100" height="40" as="geometry" />
        </mxCell>
        <mxCell id="Q3Zva_nWRlIngEb7c7mF-28" value="booking Status" style="shape=ext;margin=3;double=1;whiteSpace=wrap;html=1;align=center;" vertex="1" parent="1">
          <mxGeometry x="320" y="260" width="100" height="40" as="geometry" />
        </mxCell>
        <mxCell id="Q3Zva_nWRlIngEb7c7mF-29" value="Status" style="shape=ext;margin=3;double=1;whiteSpace=wrap;html=1;align=center;" vertex="1" parent="1">
          <mxGeometry x="320" y="320" width="100" height="40" as="geometry" />
        </mxCell>
        <mxCell id="Q3Zva_nWRlIngEb7c7mF-30" value="Client" style="shape=ext;margin=3;double=1;whiteSpace=wrap;html=1;align=center;" vertex="1" parent="1">
          <mxGeometry x="480" y="160" width="100" height="40" as="geometry" />
        </mxCell>
        <mxCell id="Q3Zva_nWRlIngEb7c7mF-31" value="Client Family" style="shape=ext;margin=3;double=1;whiteSpace=wrap;html=1;align=center;" vertex="1" parent="1">
          <mxGeometry x="480" y="260" width="100" height="40" as="geometry" />
        </mxCell>
        <mxCell id="Q3Zva_nWRlIngEb7c7mF-32" value="Family member" style="shape=ext;margin=3;double=1;whiteSpace=wrap;html=1;align=center;" vertex="1" parent="1">
          <mxGeometry x="480" y="360" width="100" height="40" as="geometry" />
        </mxCell>
        <mxCell id="Q3Zva_nWRlIngEb7c7mF-36" value="" style="fontSize=12;html=1;endArrow=baseDash;startArrow=ERmany;rounded=0;endFill=0;" edge="1" parent="1">
          <mxGeometry width="100" height="100" relative="1" as="geometry">
            <mxPoint x="209.5" y="260" as="sourcePoint" />
            <mxPoint x="209.5" y="200" as="targetPoint" />
            <Array as="points">
              <mxPoint x="209.5" y="230" />
            </Array>
          </mxGeometry>
        </mxCell>
        <mxCell id="Q3Zva_nWRlIngEb7c7mF-38" value="" style="fontSize=12;html=1;endArrow=ERmany;startArrow=baseDash;rounded=0;startFill=0;" edge="1" parent="1">
          <mxGeometry width="100" height="100" relative="1" as="geometry">
            <mxPoint x="209.5" y="360" as="sourcePoint" />
            <mxPoint x="209.5" y="300" as="targetPoint" />
            <Array as="points">
              <mxPoint x="209.5" y="330" />
            </Array>
          </mxGeometry>
        </mxCell>
        <mxCell id="Q3Zva_nWRlIngEb7c7mF-39" value="" style="edgeStyle=entityRelationEdgeStyle;fontSize=12;html=1;endArrow=ERmany;rounded=0;" edge="1" parent="1">
          <mxGeometry width="100" height="100" relative="1" as="geometry">
            <mxPoint x="260" y="280" as="sourcePoint" />
            <mxPoint x="320" y="220" as="targetPoint" />
            <Array as="points">
              <mxPoint x="280" y="250" />
              <mxPoint x="280" y="250" />
              <mxPoint x="270" y="250" />
              <mxPoint x="280" y="270" />
              <mxPoint x="280" y="280" />
              <mxPoint x="310" y="200" />
              <mxPoint x="280" y="240" />
              <mxPoint x="240" y="280" />
              <mxPoint x="260" y="180" />
            </Array>
          </mxGeometry>
        </mxCell>
        <mxCell id="Q3Zva_nWRlIngEb7c7mF-41" value="" style="fontSize=12;html=1;endArrow=baseDash;startArrow=ERmany;rounded=0;endFill=0;jumpSize=6;" edge="1" parent="1">
          <mxGeometry width="100" height="100" relative="1" as="geometry">
            <mxPoint x="369.76" y="260" as="sourcePoint" />
            <mxPoint x="369.76" y="240" as="targetPoint" />
            <Array as="points">
              <mxPoint x="369.76" y="240" />
              <mxPoint x="369.76" y="250" />
            </Array>
          </mxGeometry>
        </mxCell>
        <mxCell id="Q3Zva_nWRlIngEb7c7mF-42" value="" style="fontSize=12;html=1;endArrow=ERmany;startArrow=baseDash;rounded=0;endFill=0;jumpSize=6;startFill=0;" edge="1" parent="1">
          <mxGeometry width="100" height="100" relative="1" as="geometry">
            <mxPoint x="369.76" y="320" as="sourcePoint" />
            <mxPoint x="369.76" y="300" as="targetPoint" />
            <Array as="points">
              <mxPoint x="369.76" y="300" />
              <mxPoint x="369.76" y="310" />
            </Array>
          </mxGeometry>
        </mxCell>
        <mxCell id="Q3Zva_nWRlIngEb7c7mF-44" value="" style="edgeStyle=entityRelationEdgeStyle;fontSize=12;html=1;endArrow=none;rounded=0;endFill=0;startArrow=ERmany;startFill=0;" edge="1" parent="1">
          <mxGeometry width="100" height="100" relative="1" as="geometry">
            <mxPoint x="420" y="220" as="sourcePoint" />
            <mxPoint x="480" y="280" as="targetPoint" />
            <Array as="points">
              <mxPoint x="430" y="170" />
              <mxPoint x="470" y="170" />
              <mxPoint x="510" y="120" />
              <mxPoint x="480" y="180" />
              <mxPoint x="466" y="270" />
            </Array>
          </mxGeometry>
        </mxCell>
        <mxCell id="Q3Zva_nWRlIngEb7c7mF-47" value="" style="fontSize=12;html=1;endArrow=ERmany;startArrow=baseDash;rounded=0;startFill=0;" edge="1" parent="1">
          <mxGeometry width="100" height="100" relative="1" as="geometry">
            <mxPoint x="529.52" y="360" as="sourcePoint" />
            <mxPoint x="529.52" y="300" as="targetPoint" />
            <Array as="points">
              <mxPoint x="529.52" y="330" />
            </Array>
          </mxGeometry>
        </mxCell>
        <mxCell id="Q3Zva_nWRlIngEb7c7mF-48" value="" style="fontSize=12;html=1;endArrow=baseDash;startArrow=ERmany;rounded=0;endFill=0;" edge="1" parent="1">
          <mxGeometry width="100" height="100" relative="1" as="geometry">
            <mxPoint x="529.52" y="260" as="sourcePoint" />
            <mxPoint x="529.52" y="200" as="targetPoint" />
            <Array as="points">
              <mxPoint x="529.52" y="230" />
            </Array>
          </mxGeometry>
        </mxCell>
      </root>
    </mxGraphModel>
  </diagram>
</mxfile>
